<svg width="6" height="9" viewBox="0 0 6 9" fill="none" xmlns="http://www.w3.org/2000/svg">
<path d="M5.57143 9C5.4962 9 5.42229 8.9792 5.35714 8.9397L3 7.5123L0.642857 8.9397C0.577707 8.97919 0.503803 8.99999 0.428574 8.99999C0.353345 8.99999 0.279441 8.9792 0.21429 8.9397C0.14914 8.90021 0.0950375 8.8434 0.0574218 8.775C0.019806 8.70659 1.91109e-06 8.62899 0 8.55V1.35C0.000340378 0.992067 0.135908 0.648897 0.376953 0.395801C0.617997 0.142704 0.944826 0.000357397 1.28571 0H4.71429C5.05517 0.000357397 5.382 0.142704 5.62305 0.395801C5.86409 0.648897 5.99966 0.992067 6 1.35V8.55C6 8.66935 5.95485 8.78381 5.87447 8.8682C5.7941 8.95259 5.68509 9 5.57143 9Z" fill="#EEEEEE"/>
</svg>
